<svg width="400" height="400" xmlns="http://www.w3.org/2000/svg">
 <!-- Created with Method Draw - http://github.com/duopixel/Method-Draw/ -->
 <g>
  <title>background</title>
  <rect fill="#ffffff" id="canvas_background" height="402" width="402" y="-1" x="-1"/>
  <g display="none" overflow="visible" y="0" x="0" height="100%" width="100%" id="canvasGrid">
   <rect fill="url(#gridpattern)" stroke-width="0" y="0" x="0" height="100%" width="100%"/>
  </g>
 </g>
 <g>
  <title>Layer 1</title>
  <rect stroke="#000" rx="15" id="svg_1" height="100" width="100" y="149.523813" x="150.000006" stroke-width="5" fill="#fff"/>
  <path d="m197.380951,150.952377c0,0 0,0.476196 0,1.428574c0,0.476196 0.000015,0.952393 -0.952377,1.90477c-0.476196,0.476181 -1.282181,2.469513 -1.90477,3.333328c-0.393753,0.546326 -1.593414,1.764496 -2.380951,2.857147c-1.245193,1.7276 -1.292435,2.48175 -2.380951,3.809525c-0.853897,1.041595 -2.479431,2.767929 -3.333328,3.809525c-1.088501,1.327774 -2.00325,2.767914 -2.857147,3.809509c-1.088516,1.327774 -1.904755,2.857147 -2.380951,3.809525c-0.476196,0.952393 -0.805969,1.517151 -1.428574,2.380966c-0.393753,0.54631 -1.091858,1.091843 -1.428574,1.428558c-0.673447,0.673447 -0.218475,1.758789 -0.476181,2.380951c-0.364471,0.879898 -0.046616,2.297348 -0.952393,2.857147c-0.40506,0.250336 -0.952377,0.476196 -0.952377,0.952377c0,0.476196 0.18222,0.988632 0,1.428574c-0.257706,0.622177 -0.293961,0.988632 -0.476181,1.428574c-0.257721,0.622177 -0.476196,0.952377 -0.476196,1.428574c0,0.476196 -0.140259,1.593414 0.952377,2.380951c0.8638,0.622604 1.292435,1.529373 2.380951,2.857147c0.853912,1.041595 1.848343,1.995377 3.333344,2.857147c0.920944,0.534439 0.867172,1.570801 2.380951,2.380951c0.839691,0.449387 2.642441,1.407211 4.285706,1.904755c0.455765,0.138 0.548691,0.11174 1.428574,0.476196c1.244339,0.515427 1.612808,1.865524 2.857147,2.380951c0.879883,0.364456 1.282593,0.694656 1.904755,0.952377c0.439941,0.182236 0.868469,0.707748 1.90477,0.952377c0.46344,0.109406 0.952377,0.476196 1.428574,0.952393c0.476181,0.476181 1.722534,0.988617 1.904755,1.428558c0.257721,0.622177 0.952377,0.952393 0.952377,1.428574c0,0.476196 0,0.952377 0,1.428574c0,0.476196 0,0.952377 0,1.90477c0,1.428558 0,1.904755 0,2.857132c0,0.952393 0.152557,3.821823 0,4.761902c-0.241211,1.486404 -0.531357,2.83992 -0.952377,4.285721c-0.548935,1.885086 -0.694656,3.187347 -0.952377,3.809525c-0.182236,0.439941 -0.11174,1.501068 -0.476196,2.380951c-0.257706,0.622177 -0.476181,0.952377 -0.476181,1.428574c0,0.476196 -1.183945,0.868454 -1.428574,1.904755c-0.218811,0.92691 -0.218475,1.282593 -0.476196,1.90477c-0.182236,0.439941 -0.476181,0.952377 -0.476181,1.428574c0,0.476181 -0.218475,0.806396 -0.476196,1.428574c-0.18222,0.439941 -0.392578,0.998978 -0.952377,1.904755c-0.751038,1.215225 -0.812912,2.044235 -0.476196,2.380951c0.336716,0.336716 3.18692,-1.517151 3.809525,-2.380951c0.787537,-1.092636 1.904785,-1.428574 2.857147,-2.380951c0.476181,-0.476196 1.795013,-1.138565 2.857147,-2.857147c0.791672,-1.280945 1.292435,-2.005554 2.380951,-3.333328c0.853897,-1.04158 1.768631,-2.005569 2.857132,-3.333328c0.853912,-1.041595 1.428574,-1.428574 1.90477,-1.90477c0.952377,-0.952377 1.455353,-2.017441 1.904755,-2.857147c0.81015,-1.513779 2.334671,-2.01152 3.333344,-2.380951c1.841415,-0.681183 2.857132,-1.428574 5.714279,-2.857132c2.857147,-1.428574 3.151093,-1.464828 3.333328,-1.90477c0.257721,-0.622162 1.389343,-0.660416 1.90477,-1.904755c0.182236,-0.439941 0,-0.952393 0.476181,-1.428574c0.476196,-0.476196 1.170868,-1.758789 1.428574,-2.380951c0.182236,-0.439941 0.476196,-0.476196 0.476196,-0.952393c0,-0.476181 0,-0.952377 0,-1.428558c0,-0.952393 0.146393,-1.517136 -0.476196,-2.380951c-0.393753,-0.546326 -0.335922,-1.59343 -1.428574,-2.380966c-0.8638,-0.622589 -1.21817,-2.152039 -2.857132,-3.333328c-1.727615,-1.245193 -3.333344,-1.428589 -5.238098,-2.857147c-1.90477,-1.428574 -3.333328,-2.380951 -6.190475,-3.809525c-2.857147,-1.428558 -4.641296,-2.557785 -6.666672,-3.809525c-0.905762,-0.559784 -2.56517,-1.865524 -3.809525,-2.380951c-0.439941,-0.18222 -1.499695,-0.225845 -1.904755,-0.476181c-0.905777,-0.559799 -0.952377,-0.952377 -1.428574,-1.428574c-0.952377,-0.952377 -1.647049,-1.282593 -1.90477,-1.90477c-0.18222,-0.439941 0,-1.428558 0,-2.380951c0,-1.428574 0,-2.380951 0,-3.333328c0,-1.428574 -0.533951,-2.423996 0,-5.714279c0.241211,-1.486404 1.11676,-3.893799 1.90477,-6.190475c0.691132,-2.014328 1.428574,-4.761917 1.428574,-5.714294c0,-1.428574 0.436951,-2.565186 0.952377,-3.809525c0.364456,-0.879883 0,-1.428574 0,-2.380951c0,-0.476196 0,-0.952377 0,-1.904755l0.476196,-0.476196l0,-0.476196" id="svg_40" fill-opacity="null" stroke-opacity="null" stroke-width="5" stroke="#000" fill="none"/>
 </g>
</svg>